<svg width="25" height="17" viewBox="0 0 25 17" fill="none" xmlns="http://www.w3.org/2000/svg">
    <g clip-path="url(#clip0_2_272)">
        <path d="M23.0845 16.985C21.9153 16.985 21.222 16.3835 21.1689 15.5172H22.2867C22.2867 15.806 22.4459 16.1904 23.1376 16.2142C23.6169 16.2142 23.8822 15.9255 23.8822 15.7085C23.8291 15.3718 23.4028 15.348 22.9783 15.2744C22.499 15.2045 22.1276 15.107 21.8605 14.9875C21.489 14.7943 21.275 14.3842 21.275 13.9519C21.275 13.1812 21.9153 12.5797 23.0314 12.5797C24.0963 12.5797 24.7879 13.1334 24.839 13.9758H23.7761C23.7761 13.7605 23.723 13.3983 23.0844 13.3983C22.6582 13.3983 22.3929 13.47 22.3398 13.7826C22.3398 14.2168 23.2437 14.1928 23.9353 14.3602C24.5738 14.5294 25.0001 14.9378 25.0001 15.5172C25.0001 16.5767 24.1493 16.985 23.0845 16.985ZM2.7135 9.87678L6.38376 7.73388L8.35239 11.1294H3.4051" fill="#1D1E20"/>
        <path d="M10.4314 16.8572V12.5715V16.8572Z" fill="#1D1E20"/>
        <path d="M10.4314 16.8572V12.5715" stroke="#1D1E20"/>
        <path d="M1.01002 14.7777C1.01002 15.4509 1.59545 16.0046 2.23214 16.0046C2.92557 16.0046 3.45617 15.4509 3.45617 14.7777C3.45617 14.1284 2.92557 13.5509 2.23214 13.5509C1.59545 13.5509 1.01002 14.1284 1.01002 14.7777ZM2.17914 16.9923C1.00994 16.9923 0 16.0046 0 14.7777C0 13.5509 1.01002 12.5871 2.17914 12.5871C2.65848 12.5871 3.08474 12.7085 3.45617 12.9715V12.6348H4.52102V16.8948H3.45625V16.63C3.13791 16.8709 2.65856 16.9923 2.17922 16.9923H2.17914ZM16.3849 11.1284L11.2784 2.17437L14.9486 0.00759888L21.3322 11.1284H16.3849ZM5.90422 14.7777C5.90422 15.4509 6.43674 16.0046 7.12825 16.0046C7.76493 16.0046 8.35228 15.4509 8.35228 14.7777C8.35228 14.1284 7.76493 13.5509 7.12825 13.5509C6.43665 13.5509 5.90422 14.1284 5.90422 14.7777ZM7.07517 16.9923C5.85114 16.9923 4.89428 16.0046 4.89428 14.7777C4.89428 13.5509 5.85114 12.5871 7.07517 12.5871C7.55268 12.5871 7.97902 12.7085 8.35228 12.9715V11.167H9.41531V16.8948H8.3522V16.63C7.97894 16.8709 7.55268 16.9923 7.07508 16.9923H7.07517ZM7.02275 6.04965L10.746 3.93256L14.8426 11.1282H10.9583V12.1876H9.89524V11.1282L7.02275 6.04965ZM24.3102 12.221C24.0432 12.221 23.7779 11.98 23.7779 11.6912C23.7779 11.4024 24.0432 11.1615 24.3102 11.1615C24.6286 11.1615 24.8428 11.4025 24.8428 11.6912C24.8428 11.9799 24.6286 12.2211 24.3102 12.2211V12.221ZM24.3102 11.2351C24.0432 11.2351 23.884 11.4503 23.884 11.6912C23.884 11.9322 24.0432 12.1493 24.3102 12.1493C24.5756 12.1493 24.7348 11.9323 24.7348 11.6912C24.7348 11.4502 24.5756 11.2351 24.3102 11.2351Z" fill="#1D1E20"/>
        <path d="M24.4201 11.9819L24.3139 11.7409H24.2078V11.9819H24.1273V11.4043H24.367C24.4201 11.4043 24.5262 11.478 24.5262 11.5736C24.5262 11.6691 24.4731 11.7171 24.4201 11.7409L24.5262 11.9819H24.4201ZM24.3139 11.478H24.2078V11.6692H24.3139C24.4201 11.6692 24.4201 11.6454 24.4201 11.5736C24.4201 11.524 24.4201 11.478 24.3139 11.478ZM17.2845 14.7778C17.2845 15.4509 17.817 16.0046 18.5085 16.0046C19.147 16.0046 19.7307 15.4509 19.7307 14.7778C19.7307 14.1285 19.147 13.5509 18.5085 13.5509C17.8169 13.5509 17.2845 14.1285 17.2845 14.7778ZM18.4537 16.9924C17.2315 16.9924 16.2746 16.0046 16.2746 14.7778C16.2746 13.5509 17.2315 12.5871 18.4536 12.5871C18.933 12.5871 19.3593 12.7085 19.7307 12.9715V12.6349H20.7425V16.8949H19.7308V16.63C19.3593 16.871 18.933 16.9924 18.4536 16.9924H18.4537ZM12.394 14.7778C12.394 15.4509 12.9794 16.0046 13.6179 16.0046C14.3096 16.0046 14.8419 15.4509 14.8419 14.7778C14.8419 14.1285 14.3095 13.5509 13.6179 13.5509C12.9794 13.5509 12.394 14.1285 12.394 14.7778ZM14.8419 11.1671H15.905V16.8949H14.8419V16.63C14.5218 16.871 14.0955 16.9924 13.6179 16.9924C12.394 16.9924 11.3839 16.0046 11.3839 14.7778C11.3839 13.5509 12.394 12.5871 13.6179 12.5871C14.0954 12.5871 14.5218 12.7085 14.8419 12.9715V11.1671Z" fill="#1D1E20"/>
    </g>
    <defs>
        <clipPath id="clip0_2_272">
            <rect width="25" height="17" fill="white"/>
        </clipPath>
    </defs>
</svg>
