<svg width="25" height="25" viewBox="0 0 25 25" fill="none" xmlns="http://www.w3.org/2000/svg">
    <path fill-rule="evenodd" clip-rule="evenodd" d="M7.7982 22.3958H16.4939C19.6879 22.3958 22.1383 21.2421 21.4424 16.5988L20.6319 10.3058C20.2028 7.98887 18.725 7.10214 17.4282 7.10214H6.82566C5.50986 7.10214 4.1178 8.05562 3.62199 10.3058L2.81154 16.5988C2.2204 20.7177 4.60407 22.3958 7.7982 22.3958Z" stroke="#1D1E20" stroke-width="1.5" stroke-linecap="round" stroke-linejoin="round"/>
    <path d="M7.65518 6.87332C7.65518 4.38783 9.67007 2.37293 12.1555 2.37293C13.3524 2.36786 14.502 2.83977 15.3501 3.68431C16.1982 4.52884 16.675 5.67644 16.675 6.87332" stroke="#1D1E20" stroke-width="1.5" stroke-linecap="round" stroke-linejoin="round"/>
    <path d="M9.06631 11.5644H9.11399" stroke="#1D1E20" stroke-width="1.5" stroke-linecap="round" stroke-linejoin="round"/>
    <path d="M15.1399 11.5644H15.1876" stroke="#1D1E20" stroke-width="1.5" stroke-linecap="round" stroke-linejoin="round"/>
</svg>
