<svg width="25" height="9" viewBox="0 0 25 9" fill="none" xmlns="http://www.w3.org/2000/svg">
<g clip-path="url(#clip0_2_288)">
<path d="M6.25414 0.251686C6.87323 0.251686 7.37518 0.786131 7.37518 1.44561C7.37518 2.10517 6.87323 2.63962 6.25414 2.63962H1.12743C0.508252 2.63962 0.00634766 2.10517 0.00634766 1.44561C0.00634766 0.786131 0.508252 0.251686 1.12739 0.251686H6.25414Z" fill="#1D1E20"/>
<path d="M5.73881 3.38036C6.35802 3.38036 6.85993 3.91489 6.85993 4.57437C6.85993 5.23385 6.35802 5.76838 5.73881 5.76838H2.82087C2.57199 5.76933 2.36829 5.97902 2.35876 6.24143V7.79764C2.35876 8.45703 1.85686 8.99156 1.23784 8.99156C0.618666 8.99156 0.11676 8.45703 0.11676 7.79764V5.14923C0.11676 4.17236 0.860273 3.38032 1.77749 3.38032H5.73881V3.38036ZM7.88425 1.194C7.88425 0.534605 8.38615 -1.14441e-05 9.00529 -1.14441e-05C9.62451 -1.14441e-05 10.1263 0.534605 10.1263 1.194V7.80598C10.1263 8.46546 9.62455 8.99999 9.00529 8.99999C8.38619 8.99999 7.88425 8.46541 7.88425 7.80598V1.194ZM21.6818 6.63175L22.1323 6.63054C22.1765 6.6305 22.2189 6.61177 22.2502 6.57847C22.2814 6.54517 22.299 6.50002 22.299 6.45293C22.2997 6.4296 22.2957 6.40639 22.2872 6.38486L20.6121 3.38673L17.9951 8.21303C17.793 8.58623 17.43 8.79907 17.0533 8.80977C17.042 8.81145 17.0307 8.8123 17.0194 8.81231H12.7604C11.8432 8.81231 11.0996 8.02032 11.0996 7.04344V1.19408C11.0996 0.534648 11.6016 3.15287e-05 12.2207 3.15287e-05C12.8397 3.15287e-05 13.3417 0.534648 13.3417 1.19404V5.93198C13.3425 6.19718 13.5394 6.41427 13.7859 6.42416H16.1683C16.2296 6.40408 16.417 6.33623 16.474 6.24177L19.4665 0.724477C19.6935 0.309218 20.1159 0.029656 20.5994 0.029656C21.0831 0.029656 21.5055 0.309648 21.7316 0.725767L24.6475 5.94002C24.8725 6.25153 24.9942 6.63364 24.9936 7.02663C24.9936 8.01283 24.243 8.81222 23.3172 8.81222H19.9183C19.3528 8.81222 18.8947 8.32404 18.8947 7.72184C18.8947 7.11984 19.3528 6.63175 19.9183 6.63175H21.6818Z" fill="#1D1E20"/>
</g>
<defs>
<clipPath id="clip0_2_288">
<rect width="25" height="9" fill="white"/>
</clipPath>
</defs>
</svg>
