<svg width="20" height="20" viewBox="0 0 20 20" fill="none" xmlns="http://www.w3.org/2000/svg">
<path fill-rule="evenodd" clip-rule="evenodd" d="M9.80084 17.3782C7.99201 16.2649 6.30927 14.9547 4.78275 13.471C3.70954 12.4024 2.89252 11.0998 2.39426 9.66284C1.49763 6.87526 2.54495 3.68403 5.47594 2.7396C7.01635 2.24369 8.69868 2.52713 9.99676 3.50124C11.2953 2.52832 12.9771 2.24499 14.5176 2.7396C17.4486 3.68403 18.5034 6.87526 17.6068 9.66284C17.1085 11.0998 16.2915 12.4024 15.2183 13.471C13.6918 14.9547 12.009 16.2649 10.2002 17.3782L10.0043 17.5L9.80084 17.3782Z" stroke="#8F959E" stroke-width="1.5" stroke-linecap="round" stroke-linejoin="round"/>
<path d="M13.1161 5.8775C14.0038 6.16109 14.6346 6.95809 14.7134 7.89582" stroke="#8F959E" stroke-width="1.5" stroke-linecap="round" stroke-linejoin="round"/>
</svg>
