<svg width="21" height="23" viewBox="0 0 21 23" fill="none" xmlns="http://www.w3.org/2000/svg">
    <path d="M7.65722 20.2714V17.2047C7.6572 16.4246 8.29312 15.7908 9.081 15.7856H11.9671C12.7587 15.7856 13.4005 16.4209 13.4005 17.2047V20.2809C13.4003 20.9432 13.9343 21.4845 14.603 21.5H16.5271C18.4451 21.5 20 19.9607 20 18.0618V9.33784C19.9898 8.59083 19.6355 7.88935 19.038 7.43303L12.4577 2.1853C11.3049 1.27157 9.6662 1.27157 8.5134 2.1853L1.96203 7.44256C1.36226 7.89702 1.00739 8.59967 1 9.34736V18.0618C1 19.9607 2.55488 21.5 4.47291 21.5H6.39696C7.08235 21.5 7.63797 20.9499 7.63797 20.2714" stroke="#9775FA" stroke-width="1.5" stroke-linecap="round" stroke-linejoin="round"/>
</svg>
