<svg width="26" height="14" viewBox="0 0 26 14" fill="none" xmlns="http://www.w3.org/2000/svg">
    <path fill-rule="evenodd" clip-rule="evenodd" d="M4.35809 8.27638C4.15134 8.27638 3.98947 8.42034 3.98947 8.6304C3.98947 8.8406 4.15217 8.98373 4.35809 8.98373C4.56386 8.98373 4.7267 8.83963 4.7267 8.6304C4.7267 8.42034 4.5647 8.27638 4.35809 8.27638ZM4.35809 8.8825C4.21067 8.8825 4.10132 8.77533 4.10132 8.6304C4.10132 8.48561 4.20984 8.37761 4.35809 8.37761C4.50453 8.37761 4.61472 8.48727 4.61472 8.6304C4.61472 8.7727 4.50356 8.8825 4.35809 8.8825ZM7.9449 7.03813H6.15045L6.35442 3.9338L5.18911 7.03813H3.52276L6.16671 0.0214436H7.93976L7.7351 3.16837L8.9225 0.0214436H10.589L7.9449 7.03813ZM8.16137 7.03813L10.8052 0.0214436H12.4715L9.82771 7.03813H8.16137Z" fill="#1D1E20"/>
    <path fill-rule="evenodd" clip-rule="evenodd" d="M3.33058 4.61964C1.00203 7.34134 -1.19452 10.9628 0.745683 12.6304C2.62572 14.2465 4.97567 13.2896 6.57797 12.6517C8.18026 12.0138 25.8904 4.3591 25.8904 4.3591C26.0613 4.27405 26.0293 4.16771 25.8156 4.22081C25.7295 4.24225 6.53531 9.41958 6.53531 9.41958C4.09963 10.1001 1.32244 8.61694 3.33058 4.61964Z" fill="#1D1E20"/>
    <path fill-rule="evenodd" clip-rule="evenodd" d="M4.42086 8.65535C4.47255 8.65286 4.51298 8.62631 4.51298 8.55509C4.51298 8.46326 4.45268 8.44017 4.35195 8.44017H4.20717V8.82088H4.30373V8.6588H4.31999L4.40794 8.82088H4.51896L4.42086 8.65535ZM4.35889 8.59367H4.30387V8.5053H4.35028C4.37876 8.5053 4.41142 8.50862 4.41142 8.54554C4.41142 8.5851 4.39252 8.59367 4.35889 8.59367ZM21.1088 0C20.9021 0 20.7402 0.144099 20.7402 0.354024C20.7402 0.564088 20.9031 0.707219 21.1088 0.707219C21.3146 0.707219 21.4775 0.56312 21.4775 0.354024C21.4776 0.144099 21.3157 0 21.1088 0ZM21.1088 0.606267C20.9614 0.606267 20.8521 0.499092 20.8521 0.354163C20.8521 0.209372 20.9606 0.101367 21.1088 0.101367C21.2553 0.101367 21.3656 0.211032 21.3656 0.354163C21.3656 0.496464 21.2545 0.606267 21.1088 0.606267Z" fill="#1D1E20"/>
    <path fill-rule="evenodd" clip-rule="evenodd" d="M21.1718 0.378927C21.2235 0.376438 21.264 0.349886 21.264 0.278666C21.264 0.18684 21.2036 0.163745 21.103 0.163745H20.9582V0.544324H21.0547V0.382384H21.0711L21.1589 0.544324H21.27L21.1718 0.378927ZM21.1097 0.317249H21.0547V0.228881H21.1012C21.1296 0.228881 21.1623 0.232338 21.1623 0.269262C21.1623 0.308675 21.1433 0.317249 21.1097 0.317249ZM20.0109 1.19097L20.4587 0.0214436H15.3742L13.6284 2.12652L14.4344 0.0214436H12.7467L10.124 7.03821H11.7903L12.9101 4.10395L12.9868 7.03821L18.0998 7.02715L18.5865 5.67743H16.6425L17.2812 3.97644H18.8834L19.3764 2.66876H17.7742L18.3235 1.19097H20.0109ZM14.6399 6.57037L14.5331 2.91326L17.0525 0.160011L14.6399 6.57037Z" fill="#1D1E20"/>
</svg>
