<svg width="15" height="15" viewBox="0 0 15 15" fill="none" xmlns="http://www.w3.org/2000/svg">
    <path d="M6.84005 3.56009C6.97571 2.82828 8.02429 2.82828 8.15995 3.56009C8.257 4.08357 8.8957 4.2911 9.28191 3.92463C9.82181 3.41232 10.6701 4.02867 10.3497 4.70045C10.1205 5.181 10.5153 5.72432 11.0431 5.65485C11.7811 5.55772 12.1051 6.55499 11.451 6.91015C10.9831 7.16421 10.9831 7.83579 11.451 8.08985C12.1051 8.44501 11.7811 9.44228 11.0431 9.34515C10.5153 9.27568 10.1205 9.819 10.3497 10.2995C10.6701 10.9713 9.82181 11.5877 9.28191 11.0754C8.8957 10.7089 8.257 10.9164 8.15995 11.4399C8.02429 12.1717 6.97571 12.1717 6.84005 11.4399C6.74301 10.9164 6.1043 10.7089 5.71809 11.0754C5.17819 11.5877 4.32987 10.9713 4.65026 10.2995C4.87945 9.819 4.48471 9.27568 3.95686 9.34515C3.21894 9.44228 2.89491 8.44501 3.54898 8.08985C4.01686 7.83579 4.01686 7.16421 3.54898 6.91015C2.89491 6.55499 3.21894 5.55772 3.95686 5.65485C4.48471 5.72432 4.87945 5.181 4.65026 4.70045C4.32987 4.02867 5.17819 3.41232 5.71809 3.92463C6.1043 4.2911 6.74301 4.08357 6.84005 3.56009Z" fill="#4AC76D"/>
    <path d="M9.16666 6.25L6.87499 8.54167L5.83333 7.5" stroke="white" stroke-width="0.7" stroke-linecap="round" stroke-linejoin="round"/>
</svg>
