<svg width="25" height="25" viewBox="0 0 25 25" fill="none" xmlns="http://www.w3.org/2000/svg">
<path fill-rule="evenodd" clip-rule="evenodd" d="M21.6736 7.94123L21.0252 6.81614C20.4767 5.86414 19.2612 5.53572 18.3078 6.08197C17.8541 6.34928 17.3126 6.42513 16.8028 6.29277C16.293 6.16041 15.8569 5.83072 15.5904 5.3764C15.4191 5.08763 15.327 4.75871 15.3234 4.42293C15.339 3.88457 15.1358 3.36289 14.7604 2.97671C14.385 2.59053 13.8693 2.37274 13.3307 2.37297H12.0245C11.4969 2.37296 10.9909 2.58321 10.6188 2.9572C10.2465 3.3312 10.0387 3.83809 10.0413 4.36572C10.0256 5.4551 9.13799 6.32998 8.0485 6.32987C7.71272 6.32638 7.3838 6.23428 7.09503 6.0629C6.14173 5.51665 4.92616 5.84506 4.37763 6.79707L3.6816 7.94123C3.13375 8.89204 3.4577 10.1069 4.40624 10.6586C5.02281 11.0146 5.40263 11.6725 5.40263 12.3844C5.40263 13.0964 5.02281 13.7542 4.40624 14.1102C3.45891 14.6582 3.1346 15.8701 3.6816 16.818L4.3395 17.9527C4.5965 18.4165 5.02771 18.7586 5.5377 18.9035C6.04769 19.0485 6.59441 18.9843 7.0569 18.725C7.51153 18.4597 8.05331 18.387 8.5618 18.5231C9.0703 18.6592 9.50336 18.9927 9.76475 19.4496C9.93614 19.7384 10.0282 20.0673 10.0317 20.4031C10.0317 21.5036 10.9239 22.3958 12.0245 22.3958H13.3307C14.4276 22.3958 15.3182 21.5095 15.3234 20.4126C15.3209 19.8833 15.5301 19.375 15.9043 19.0007C16.2786 18.6265 16.787 18.4173 17.3163 18.4199C17.6513 18.4289 17.9788 18.5205 18.2697 18.6869C19.2205 19.2347 20.4353 18.9107 20.9871 17.9622L21.6736 16.818C21.9393 16.362 22.0123 15.8188 21.8763 15.3086C21.7402 14.7986 21.4065 14.3639 20.949 14.1006C20.4914 13.8374 20.1577 13.4026 20.0217 12.8926C19.8856 12.3826 19.9586 11.8394 20.2243 11.3832C20.3971 11.0816 20.6473 10.8315 20.949 10.6586C21.8918 10.1071 22.215 8.89944 21.6736 7.95077V7.94123Z" stroke="#1D1E20" stroke-width="1.5" stroke-linecap="round" stroke-linejoin="round"/>
<path d="M12.6824 15.1304C14.199 15.1304 15.4284 13.901 15.4284 12.3844C15.4284 10.8678 14.199 9.63838 12.6824 9.63838C11.1658 9.63838 9.9364 10.8678 9.9364 12.3844C9.9364 13.901 11.1658 15.1304 12.6824 15.1304Z" stroke="#1D1E20" stroke-width="1.5" stroke-linecap="round" stroke-linejoin="round"/>
</svg>
